<?xml version="1.0" standalone="no"?>
<!DOCTYPE svg PUBLIC "-//W3C//DTD SVG 20010904//EN"
 "http://www.w3.org/TR/2001/REC-SVG-20010904/DTD/svg10.dtd">
<svg version="1.0" xmlns="http://www.w3.org/2000/svg"
 width="555.000000pt" height="641.000000pt" viewBox="0 0 555.000000 641.000000"
 preserveAspectRatio="xMidYMid meet">

<g transform="translate(0.000000,641.000000) scale(0.100000,-0.100000)"
fill="#000000" stroke="none">
<path d="M2603 6243 c9 -2 23 -2 30 0 6 3 -1 5 -18 5 -16 0 -22 -2 -12 -5z"/>
<path d="M3288 6243 c6 -2 18 -2 25 0 6 3 1 5 -13 5 -14 0 -19 -2 -12 -5z"/>
<path d="M2558 6233 c7 -3 16 -2 19 1 4 3 -2 6 -13 5 -11 0 -14 -3 -6 -6z"/>
<path d="M2478 6206 c-25 -12 -63 -35 -82 -50 -36 -27 -107 -115 -119 -148 -7
-21 2 -20 -682 -63 -983 -63 -1017 -65 -1095 -85 -41 -10 -84 -22 -95 -26 -18
-7 -19 -6 -5 11 13 17 13 18 0 10 -42 -24 -106 -84 -131 -124 -31 -48 -37 -70
-16 -53 10 9 9 -7 -5 -60 -17 -69 -18 -181 -18 -2393 0 -2164 2 -2369 25
-2440 6 -16 3 -16 -14 5 -11 14 -21 22 -21 19 0 -15 34 -87 56 -115 23 -32
115 -110 101 -86 -11 16 -9 16 79 -14 82 -27 146 -32 679 -54 526 -21 1141
-51 1157 -56 10 -3 15 -11 11 -20 -3 -7 0 -14 6 -14 6 0 23 -13 38 -28 42 -44
143 -107 191 -121 67 -19 60 -7 -13 24 -36 15 -65 32 -65 37 0 11 -1 11 66
-15 l59 -22 1045 3 c611 2 1080 7 1129 13 46 5 115 21 153 34 37 13 68 21 68
17 0 -10 -53 -41 -109 -64 -42 -17 -43 -18 -11 -12 94 16 212 109 264 208 35
67 35 107 0 49 -31 -53 -37 -54 -20 -5 35 99 36 150 36 2699 -1 2688 1 2606
-48 2717 -12 25 -19 46 -17 46 3 0 17 -18 31 -40 36 -54 40 -45 8 16 -48 91
-115 147 -178 149 -23 1 -77 9 -121 18 -67 13 -215 18 -885 29 -1115 18 -1310
17 -1385 -4 -32 -9 -61 -15 -63 -13 -2 2 11 13 29 24 45 28 26 26 -33 -3z
m1347 -111 c501 -8 924 -19 941 -24 51 -14 97 -41 137 -80 42 -39 81 -105 74
-124 -2 -7 0 -23 6 -37 14 -35 16 -265 17 -2841 1 -2105 0 -2289 -16 -2335
-31 -92 -97 -162 -187 -196 -51 -20 -81 -21 -1102 -30 l-1051 -9 -56 21 c-74
27 -140 87 -175 158 l-28 57 -2 2567 c-2 2151 0 2574 11 2612 8 25 11 46 8 46
-4 0 2 7 12 15 18 13 18 15 3 15 -16 0 -16 4 3 40 31 60 91 115 151 138 68 26
67 26 1254 7z m-1506 -99 c-10 -30 -23 -85 -29 -123 -7 -46 -10 -885 -8 -2648
l3 -2580 21 -67 c25 -79 12 -79 -23 1 -26 59 -46 206 -43 326 6 274 3 3195 -4
3210 -8 21 -8 110 1 255 11 174 7 430 -7 430 -21 0 -50 41 -50 71 0 21 9 39
33 60 l32 29 3 382 c3 364 2 380 -15 373 -30 -12 -65 -14 -633 -45 -300 -17
-565 -32 -590 -35 -25 -2 -166 -11 -315 -20 -148 -8 -289 -17 -312 -20 -37 -4
-43 -2 -43 14 0 10 15 41 32 67 38 57 109 100 178 109 44 5 1631 105 1676 105
16 0 24 -6 25 -17 1 -21 2 -17 23 57 14 50 49 120 60 120 3 0 -4 -24 -15 -54z
m74 22 c-51 -88 -48 74 -48 -2748 l0 -2625 23 -62 c13 -34 40 -80 59 -103 52
-60 34 -60 -21 1 -31 35 -53 72 -68 117 l-23 67 -3 2550 c-2 1822 0 2574 8
2635 11 84 59 200 82 200 6 0 1 -15 -9 -32z m2634 -5 c33 -43 64 -118 73 -180
14 -96 13 -5056 0 -5143 -13 -82 -49 -155 -96 -200 l-38 -35 30 40 c33 44 57
97 76 165 17 62 24 5012 8 5139 -10 79 -35 170 -49 181 -11 9 -31 50 -25 50 4
0 13 -8 21 -17z m-4708 -335 c-45 -85 -43 24 -47 -2383 -2 -1623 0 -2288 8
-2359 12 -106 38 -178 85 -236 l29 -35 -42 39 c-52 50 -80 115 -93 219 -6 53
-9 893 -7 2357 4 2421 1 2308 50 2388 22 36 35 44 17 10z m362 -233 c44 -42
59 -77 59 -135 0 -65 -18 -108 -63 -147 -89 -78 -218 -57 -271 45 -34 66 -13
175 46 229 36 34 68 43 135 40 54 -3 67 -7 94 -32z m859 -21 l0 -25 24 25 c29
32 36 32 36 4 0 -17 3 -19 12 -10 7 7 22 12 35 12 18 0 23 -6 23 -25 0 -30
-20 -41 -49 -25 -16 8 -21 8 -21 -1 0 -7 -12 -10 -30 -7 -17 3 -33 1 -35 -3
-8 -12 -45 2 -45 17 0 8 -4 14 -10 14 -5 0 -10 -9 -10 -20 0 -11 -4 -20 -10
-20 -5 0 -10 5 -10 10 0 6 -8 5 -20 -2 -15 -10 -22 -10 -32 0 -9 9 -16 8 -29
-4 -17 -15 -19 -14 -25 12 -7 28 -8 28 -13 6 -3 -13 -10 -22 -16 -20 -5 1 -9
8 -7 15 2 7 -2 13 -8 13 -5 0 -10 -9 -10 -20 0 -11 -4 -20 -10 -20 -5 0 -10 8
-10 18 0 14 -2 15 -10 2 -6 -9 -26 -15 -52 -16 -24 0 -53 -4 -65 -8 -22 -7
-23 -5 -23 38 0 25 2 46 5 46 3 0 16 -9 28 -21 l22 -20 3 20 c4 24 22 29 22 6
0 -11 8 -13 30 -8 22 4 30 2 30 -8 0 -10 3 -10 8 -3 9 15 80 23 86 9 3 -7 7
-6 13 1 4 7 24 12 43 12 104 0 112 2 106 17 -3 9 0 15 9 15 9 0 15 -10 15 -26z
m-550 -29 c0 -14 5 -25 10 -25 6 0 10 7 10 16 0 23 34 13 39 -11 2 -11 8 -23
14 -27 19 -12 5 -15 -45 -10 l-48 4 0 39 c0 21 5 39 10 39 6 0 10 -11 10 -25z
m-140 0 c0 -20 16 -19 24 2 10 25 28 1 24 -33 -3 -29 -28 -47 -28 -20 0 9 -4
16 -10 16 -5 0 -10 -7 -10 -15 0 -8 -4 -15 -10 -15 -5 0 -10 18 -10 40 0 22 5
40 10 40 6 0 10 -7 10 -15z m105 -31 c0 -22 -5 -29 -20 -29 -24 0 -34 43 -13
56 21 14 33 4 33 -27z m-118 -136 c-2 -13 -4 -3 -4 22 0 25 2 35 4 23 2 -13 2
-33 0 -45z m110 5 c-3 -10 -5 -2 -5 17 0 19 2 27 5 18 2 -10 2 -26 0 -35z m20
25 c-3 -8 -6 -5 -6 6 -1 11 2 17 5 13 3 -3 4 -12 1 -19z m-78 -31 c1 -5 -3 -5
-9 -2 -5 3 -10 16 -9 28 0 21 1 21 9 2 5 -11 9 -24 9 -28z m28 6 c-3 -10 -5
-4 -5 12 0 17 2 24 5 18 2 -7 2 -21 0 -30z m73 2 c0 -8 -7 -15 -16 -15 -14 0
-14 3 -4 15 7 8 14 15 16 15 2 0 4 -7 4 -15z m-596 -231 c64 -25 64 -26 45
-45 -18 -18 -19 -32 -17 -172 3 -151 3 -152 28 -163 19 -10 121 -9 447 4 l421
15 284 -108 c456 -174 591 -230 596 -243 2 -8 -10 -12 -43 -12 -35 0 -51 -6
-70 -25 -23 -22 -25 -31 -25 -127 0 -57 -3 -127 -6 -155 -6 -45 -4 -53 10 -53
11 0 16 9 16 29 0 45 23 61 85 61 30 0 57 -5 60 -11 10 -16 -27 -40 -52 -34
-15 4 -23 1 -23 -8 0 -7 13 -14 31 -15 18 -1 36 -5 40 -8 5 -3 9 -122 9 -265
l0 -259 -27 -1 c-25 0 -26 -1 -8 -10 18 -9 20 -20 20 -129 0 -90 3 -121 13
-125 7 -3 10 -9 7 -15 -4 -6 -57 -10 -129 -10 -68 0 -198 -3 -290 -7 -146 -5
-165 -8 -153 -21 12 -11 65 -14 288 -16 l274 -1 3 -142 3 -142 -36 6 c-34 6
-35 5 -34 -28 1 -24 3 -27 6 -11 5 27 33 29 33 2 0 -11 7 -20 15 -20 13 0 15
-28 15 -195 l0 -195 -321 0 -321 0 -30 32 c-17 18 -34 43 -39 56 -5 14 -9 240
-9 506 0 748 0 760 -10 781 -6 14 -9 15 -9 5 -1 -13 -2 -13 -11 0 -8 12 -10
12 -10 1 0 -10 -3 -11 -14 -2 -11 9 -15 4 -20 -29 -3 -22 -6 -314 -6 -649 0
-376 -3 -618 -9 -634 -6 -14 -22 -34 -36 -43 -23 -15 -66 -16 -493 -11 -257 3
-475 8 -484 12 -22 9 -22 0 -3 -80 8 -33 15 -91 15 -128 0 -84 10 -104 58
-116 28 -7 794 -18 909 -12 13 1 32 10 43 21 17 17 20 34 20 113 1 93 20 211
38 229 15 15 34 -76 39 -192 5 -122 15 -154 51 -169 16 -6 145 -11 317 -13
215 -2 296 -6 313 -16 22 -13 23 -17 20 -140 l-3 -127 -330 2 c-181 2 -577 7
-879 13 -485 9 -553 8 -573 -5 -23 -15 -23 -18 -23 -213 0 -108 4 -202 8 -208
23 -36 57 -38 857 -59 727 -19 887 -25 915 -38 32 -15 34 -46 17 -193 -14
-123 -7 -315 13 -339 6 -8 9 -23 5 -34 -3 -11 -1 -30 5 -41 7 -12 10 -24 7
-26 -8 -8 -1701 67 -1743 77 -28 7 -63 28 -94 56 -41 37 -53 56 -70 110 -20
64 -20 88 -20 2124 0 1132 2 2059 5 2059 3 0 34 -12 69 -26z m1606 -87 c0 -20
-60 -127 -71 -127 -15 0 -10 19 17 66 l26 44 -31 0 c-30 0 -39 9 -24 23 12 13
83 8 83 -6z m95 3 c-3 -5 -15 -10 -26 -10 -10 0 -19 -4 -19 -10 0 -5 7 -10 15
-10 8 0 22 -11 30 -24 24 -36 5 -68 -37 -64 -17 2 -33 9 -36 16 -3 9 5 12 24
10 21 -2 29 2 32 16 3 16 0 18 -27 13 -33 -7 -34 -6 -25 42 6 27 10 31 41 31
20 0 32 -4 28 -10z m-436 -89 c-17 -39 -36 -71 -40 -71 -13 0 -12 5 27 88 45
96 57 81 13 -17z m223 34 c4 -31 3 -54 -4 -62 -15 -18 -67 -16 -75 2 -8 22 4
30 22 15 13 -10 18 -11 28 -1 9 10 8 15 -6 26 -18 13 -18 14 0 23 14 9 15 13
6 23 -10 10 -15 9 -28 -1 -18 -15 -30 -7 -21 15 4 11 16 15 38 13 31 -3 33 -6
40 -53z m-304 26 c3 -10 -2 -12 -21 -7 -38 9 -44 -13 -8 -27 17 -6 33 -18 36
-26 15 -38 -28 -71 -67 -50 -29 16 -22 31 12 24 22 -5 30 -3 30 7 0 7 -13 19
-30 25 -32 12 -40 39 -18 61 16 16 60 11 66 -7z m-310 -11 c28 -26 28 -67 0
-97 -26 -28 -58 -29 -88 -5 -32 26 -30 70 4 99 33 28 56 29 84 3z m-148 -12
c42 -45 11 -108 -55 -108 l-35 0 0 65 0 65 35 0 c22 0 41 -8 55 -22z m-379 2
c28 -15 24 -33 -5 -26 -37 9 -42 -13 -7 -25 25 -9 31 -17 31 -40 0 -22 -6 -30
-25 -35 -31 -8 -55 1 -55 20 0 12 7 14 30 10 38 -8 38 1 1 20 -38 20 -45 42
-21 66 23 23 25 23 51 10z m140 -58 c20 -46 24 -62 14 -62 -8 0 -17 5 -20 10
-3 6 -19 10 -36 10 -16 0 -29 -4 -29 -10 0 -5 -7 -10 -15 -10 -8 0 -15 1 -15
3 0 4 42 112 47 120 10 17 26 -1 54 -61z m69 19 c0 -46 2 -50 25 -53 38 -5 31
-23 -10 -26 l-35 -3 0 65 c0 37 4 66 10 66 6 0 10 -22 10 -49z m1210 -17 c0
-8 -7 -14 -15 -14 -15 0 -21 21 -9 33 10 9 24 -2 24 -19z m-438 -26 c-15 -15
-26 -4 -18 18 5 13 9 15 18 6 9 -9 9 -15 0 -24z m461 -648 c-16 -7 -23 -18
-23 -37 0 -20 -3 -24 -11 -16 -16 16 14 63 39 62 13 0 11 -3 -5 -9z m-1476
-1911 c3 -17 -24 -55 -34 -46 -3 4 2 16 12 28 17 17 17 22 5 30 -13 9 -13 10
0 6 8 -2 16 -10 17 -18z m111 -18 c8 -23 7 -29 -4 -27 -8 1 -14 5 -14 9 0 4 0
16 0 27 0 28 6 25 18 -9z m-74 13 c24 -9 20 -44 -4 -44 -11 0 -20 4 -20 10 0
5 7 7 15 4 8 -4 15 -1 15 5 0 6 -7 11 -15 11 -8 0 -15 5 -15 10 0 12 3 12 24
4z m189 -35 c-9 -9 -12 -7 -10 9 1 14 5 18 11 12 7 -7 6 -14 -1 -21z m45 9 c2
-8 -4 -15 -13 -15 -8 0 -15 9 -15 20 0 22 23 18 28 -5z m920 -6 c2 -14 -2 -22
-11 -22 -9 0 -18 -6 -20 -12 -3 -7 -6 4 -6 25 -1 31 2 38 17 35 9 -2 18 -13
20 -26z m-995 4 c4 -10 0 -12 -14 -9 -10 3 -16 9 -13 14 8 13 21 11 27 -5z
m1023 -6 c0 -12 -4 -16 -9 -11 -5 5 -6 14 -3 20 10 15 12 14 12 -9z m44 0 c0
-11 -6 -20 -13 -20 -7 0 -13 9 -13 20 0 11 6 20 13 20 7 0 13 -9 13 -20z m80
-2 c0 -10 5 -18 10 -18 10 0 14 15 10 35 -1 6 4 5 11 -2 17 -17 -7 -46 -32
-38 -9 3 -20 1 -24 -5 -12 -19 -45 -11 -45 11 0 11 5 17 10 14 6 -3 15 -3 21
1 8 4 7 9 -2 15 -10 6 -5 8 14 7 18 -2 27 -8 27 -20z m74 6 c7 -19 -2 -37 -15
-29 -12 8 -12 45 0 45 5 0 12 -7 15 -16z m-319 -14 c3 -5 -1 -10 -9 -10 -9 0
-16 5 -16 10 0 6 4 10 9 10 6 0 13 -4 16 -10z m-215 -510 c0 -5 -5 -10 -11
-10 -5 0 -7 5 -4 10 3 6 8 10 11 10 2 0 4 -4 4 -10z m300 -190 l0 -140 -66 0
c-48 0 -65 3 -61 13 2 7 19 11 45 10 23 -2 42 2 42 7 0 6 -21 11 -47 12 l-48
1 55 7 c50 6 51 7 15 9 -22 1 -47 6 -55 12 -11 7 -3 9 32 7 26 -1 50 1 54 5 4
4 -9 7 -28 7 -19 0 -56 3 -82 6 l-46 7 0 63 c0 52 3 64 16 64 12 0 14 -7 9
-29 -8 -38 7 -65 45 -81 84 -35 133 75 55 126 -14 9 -34 14 -45 11 -13 -3 -20
0 -20 9 0 11 16 14 65 14 l65 0 0 -140z m-640 100 c0 -5 -19 -9 -42 -9 l-43 2
35 7 c19 4 38 8 43 9 4 0 7 -3 7 -9z m0 -45 c0 -11 -11 -15 -39 -15 -38 0 -57
10 -44 24 3 3 24 6 45 6 27 0 38 -4 38 -15z m540 -5 c0 -5 -7 -10 -15 -10 -8
0 -15 5 -15 10 0 6 7 10 15 10 8 0 15 -4 15 -10z m-569 -40 c16 0 29 -4 29
-10 0 -17 -77 -12 -84 6 -5 12 -2 15 10 10 8 -3 29 -6 45 -6z m-1 -50 c0 -5
-15 -10 -32 -10 -25 0 -29 3 -18 10 20 13 50 13 50 0z m450 0 c0 -5 17 -11 38
-11 37 -1 37 -1 7 -9 -16 -4 -25 -8 -19 -9 6 0 9 -14 6 -31 -4 -27 -8 -30 -38
-30 -34 0 -34 1 -34 44 0 40 7 53 33 55 4 1 7 -3 7 -9z"/>
<path d="M2670 6020 c0 -5 5 -10 11 -10 5 0 7 5 4 10 -3 6 -8 10 -11 10 -2 0
-4 -4 -4 -10z"/>
<path d="M2821 6014 c0 -11 3 -14 6 -6 3 7 2 16 -1 19 -3 4 -6 -2 -5 -13z"/>
<path d="M2915 5995 c0 -13 3 -21 8 -18 4 2 7 10 7 18 0 8 -3 16 -7 18 -5 3
-8 -5 -8 -18z"/>
<path d="M4352 5980 c0 -19 2 -27 5 -17 2 9 2 25 0 35 -3 9 -5 1 -5 -18z"/>
<path d="M4322 5970 c0 -14 2 -19 5 -12 2 6 2 18 0 25 -3 6 -5 1 -5 -13z"/>
<path d="M4622 5968 c3 -21 8 -23 58 -23 48 0 55 2 55 20 0 17 -8 20 -58 23
-56 3 -58 2 -55 -20z"/>
<path d="M2646 5714 c-3 -9 -6 -30 -6 -48 0 -29 -4 -34 -50 -50 -56 -20 -68
-35 -76 -99 -6 -41 -4 -45 32 -76 53 -44 103 -57 153 -42 21 6 42 18 45 27 3
8 10 13 15 10 14 -9 61 53 61 80 0 14 -5 34 -10 45 -11 20 -79 59 -105 59 -8
0 -15 9 -15 21 0 13 4 18 13 13 8 -6 8 -3 -1 9 -15 18 -8 37 14 37 19 0 18 16
-2 24 -29 11 -62 6 -68 -10z"/>
<path d="M3031 5494 c0 -11 3 -14 6 -6 3 7 2 16 -1 19 -3 4 -6 -2 -5 -13z"/>
<path d="M2525 5199 l-30 -29 -3 -141 c-4 -154 4 -189 44 -208 17 -8 167 -11
492 -11 462 -1 468 -1 535 -24 38 -13 79 -21 91 -19 13 3 27 -1 31 -7 5 -9 1
-10 -16 -5 -16 4 -19 3 -11 -3 7 -5 32 -9 55 -9 23 0 33 1 22 4 -56 14 -31 22
51 18 59 -3 84 -2 74 5 -11 7 -7 10 18 10 20 0 31 -4 27 -10 -4 -6 14 -9 47
-8 l53 1 -45 7 c-40 6 -36 7 32 8 42 1 79 -2 82 -7 3 -4 130 -8 283 -8 153 0
303 -3 333 -7 39 -5 51 -4 40 3 -12 8 -7 11 22 11 20 0 40 -5 43 -10 4 -7 11
-8 18 -1 13 10 17 11 49 11 12 0 18 3 15 6 -3 4 2 18 13 31 10 13 16 31 13 40
-5 12 -3 14 7 8 10 -6 12 -4 5 11 -15 37 -16 60 -7 129 5 39 6 71 2 73 -4 1
-5 13 -3 26 6 27 -21 84 -42 93 -8 3 -13 8 -11 12 3 3 -26 6 -62 6 -37 0 -339
3 -672 8 -333 4 -821 9 -1085 12 l-480 4 -30 -30z m349 -125 c27 -27 16 -50
-16 -33 -10 6 -24 8 -31 6 -7 -2 4 -11 25 -20 20 -8 39 -25 43 -37 15 -47 -62
-81 -99 -44 -26 26 -19 37 19 30 22 -4 35 -3 35 4 0 5 -8 10 -17 10 -21 0 -53
29 -53 48 0 43 63 67 94 36z m141 -39 c35 -78 41 -105 22 -105 -8 0 -20 7 -27
15 -7 8 -25 15 -40 15 -16 0 -30 -7 -34 -15 -6 -16 -36 -21 -36 -6 0 5 12 38
27 73 41 97 54 100 88 23z m95 -10 c0 -51 1 -54 27 -57 17 -2 29 -10 31 -20 3
-15 -4 -18 -47 -18 l-51 0 0 73 c0 78 4 89 26 80 10 -3 14 -22 14 -58z m185
30 c30 -30 32 -64 4 -99 -17 -22 -28 -26 -70 -26 l-49 0 0 75 0 75 45 0 c35 0
52 -6 70 -25z m165 5 c31 -31 27 -93 -6 -119 -35 -28 -69 -26 -99 4 -51 50
-18 135 52 135 20 0 41 -8 53 -20z m331 10 c10 -6 19 -18 19 -27 0 -12 -7 -14
-30 -9 -17 3 -30 1 -30 -4 0 -6 7 -10 15 -10 19 0 55 -35 55 -54 0 -41 -67
-61 -102 -29 -28 25 -22 36 17 30 43 -7 46 5 5 20 -24 9 -30 17 -30 40 0 48
35 67 81 43z m139 1 c0 -5 -16 -46 -36 -90 -27 -59 -42 -81 -55 -81 -11 0 -19
2 -19 5 0 8 71 149 82 163 12 14 28 16 28 3z m182 -3 c20 -16 32 -116 17 -135
-14 -16 -71 -17 -87 -1 -25 25 -14 41 23 34 22 -4 35 -3 35 4 0 5 -7 10 -15
10 -20 0 -19 27 1 38 11 6 13 12 6 16 -6 3 -13 2 -17 -4 -9 -15 -45 -12 -45 4
0 16 37 46 55 46 6 0 18 -6 27 -12z m148 -13 c0 -9 -14 -43 -31 -75 -21 -41
-37 -60 -50 -60 -25 0 -24 13 6 60 14 22 25 42 25 44 0 2 -13 7 -30 11 -16 4
-30 13 -30 21 0 10 14 14 55 14 43 0 55 -3 55 -15z m100 -5 c0 -14 -7 -20 -22
-21 l-23 0 23 -9 c25 -10 42 -46 34 -70 -7 -21 -33 -40 -54 -40 -24 0 -61 38
-51 53 4 6 7 21 8 32 5 79 2 75 45 75 33 0 40 -3 40 -20z m184 4 c22 -21 21
-102 -1 -126 -40 -44 -93 -9 -93 63 0 53 18 79 55 79 13 0 31 -7 39 -16z m130
0 c65 -65 -8 -188 -76 -127 -24 21 -25 99 -1 125 20 22 56 23 77 2z m-706
-107 c4 -20 -25 -34 -40 -19 -15 15 -1 44 19 40 10 -2 19 -11 21 -21z m462 -6
c0 -27 -19 -36 -37 -18 -18 18 -9 37 18 37 12 0 19 -7 19 -19z m-302 -168
c-10 -2 -26 -2 -35 0 -10 3 -2 5 17 5 19 0 27 -2 18 -5z"/>
<path d="M3230 5006 c0 -39 18 -48 41 -20 15 18 2 47 -25 52 -12 3 -16 -4 -16
-32z"/>
<path d="M3377 5033 c-12 -12 -7 -50 8 -63 17 -14 51 -5 59 16 13 35 -41 73
-67 47z"/>
<path d="M4300 4971 c0 -11 26 -22 34 -14 3 3 3 10 0 14 -7 12 -34 11 -34 0z"/>
<path d="M4485 5010 c-8 -26 3 -60 20 -60 8 0 17 9 20 20 8 26 -3 60 -20 60
-8 0 -17 -9 -20 -20z"/>
<path d="M4620 4990 c0 -34 3 -41 18 -38 12 2 17 13 17 38 0 25 -5 36 -17 38
-15 3 -18 -4 -18 -38z"/>
<path d="M4941 5144 c0 -11 3 -14 6 -6 3 7 2 16 -1 19 -3 4 -6 -2 -5 -13z"/>
<path d="M4163 4747 c2 -8 52 -12 165 -12 89 0 158 2 154 6 -4 4 -78 9 -165
12 -117 4 -157 2 -154 -6z"/>
<path d="M3948 4743 c6 -2 18 -2 25 0 6 3 1 5 -13 5 -14 0 -19 -2 -12 -5z"/>
<path d="M4510 4739 c-11 -7 6 -8 55 -3 39 3 72 8 74 10 10 9 -116 3 -129 -7z"/>
<path d="M3884 4725 c16 -9 31 -13 34 -10 3 3 -1 5 -9 5 -11 0 -11 2 1 10 11
7 6 10 -20 10 l-35 0 29 -15z"/>
<path d="M4768 4733 c6 -2 18 -2 25 0 6 3 1 5 -13 5 -14 0 -19 -2 -12 -5z"/>
<path d="M3772 4712 c2 -8 10 -17 18 -19 13 -4 13 -3 1 5 -11 8 -9 11 10 14
23 3 23 4 -4 10 -22 4 -27 2 -25 -10z"/>
<path d="M3730 4716 c0 -2 7 -7 16 -10 8 -3 12 -2 9 4 -6 10 -25 14 -25 6z"/>
<path d="M2510 4532 c0 -23 5 -42 10 -42 6 0 10 7 10 15 0 8 9 15 20 15 11 0
20 -7 20 -15 0 -8 5 -15 10 -15 6 0 10 18 10 40 0 22 -4 40 -10 40 -5 0 -10
-6 -10 -14 0 -25 -18 -27 -39 -4 l-21 22 0 -42z"/>
<path d="M3020 4525 c0 -25 5 -45 10 -45 6 0 10 20 10 45 0 25 -4 45 -10 45
-5 0 -10 -20 -10 -45z"/>
<path d="M2718 4548 c-7 -20 6 -61 21 -66 10 -3 11 0 2 15 -7 13 -7 23 0 30 6
6 5 14 -4 22 -11 9 -16 9 -19 -1z"/>
<path d="M4531 4536 c-9 -10 -9 -15 -1 -18 6 -2 12 -10 13 -18 5 -30 17 -37
67 -39 38 -1 50 2 50 13 0 8 4 18 10 21 5 3 7 0 4 -9 -3 -8 2 -16 13 -19 35
-10 202 -6 209 4 3 6 0 22 -7 36 -10 18 -19 23 -36 20 -13 -2 -31 2 -40 9 -15
10 -21 10 -34 -2 -12 -10 -23 -11 -50 -4 -43 13 -62 13 -54 1 7 -12 -36 -11
-52 2 -7 5 -22 7 -35 6 -13 -2 -28 0 -34 4 -7 4 -17 1 -23 -7z"/>
<path d="M2612 4510 c0 -19 2 -27 5 -17 2 9 2 25 0 35 -3 9 -5 1 -5 -18z"/>
<path d="M2650 4525 c0 -8 6 -15 13 -15 8 0 7 -3 -3 -10 -12 -8 -12 -10 3 -16
31 -12 44 13 19 36 -25 24 -32 25 -32 5z"/>
<path d="M2777 4534 c-14 -15 -6 -43 14 -49 25 -8 42 6 37 31 -3 19 -38 31
-51 18z m39 -15 c10 -17 -13 -36 -27 -22 -12 12 -4 33 11 33 5 0 12 -5 16 -11z"/>
<path d="M2851 4508 c0 -28 2 -30 9 -13 12 28 12 45 0 45 -5 0 -10 -15 -9 -32z"/>
<path d="M2912 4510 c0 -19 2 -27 5 -17 2 9 2 25 0 35 -3 9 -5 1 -5 -18z"/>
<path d="M2944 4525 c-10 -25 4 -45 31 -45 21 0 25 5 25 30 0 25 -4 30 -25 30
-14 0 -28 -7 -31 -15z m42 -6 c10 -17 -13 -36 -27 -22 -12 12 -4 33 11 33 5 0
12 -5 16 -11z"/>
<path d="M4500 4390 c0 -4 7 -11 16 -14 23 -9 474 -7 474 2 0 4 -98 7 -218 7
-119 0 -229 3 -244 7 -16 4 -28 3 -28 -2z"/>
<path d="M2543 4370 c-12 -5 -26 -18 -32 -29 -7 -13 -11 -179 -11 -501 l0
-481 25 -24 24 -25 359 0 c348 0 360 1 386 21 l26 20 0 484 0 484 -22 25 -23
24 -355 5 c-195 3 -365 1 -377 -3z m45 -151 c-22 -12 -24 -57 -3 -65 31 -12
44 2 35 40 l-8 36 117 -1 c90 0 120 -4 134 -16 21 -19 21 -33 3 -59 -13 -17
-28 -19 -145 -20 -124 -1 -131 0 -152 22 -19 20 -21 27 -11 49 6 14 20 25 29
25 17 -1 17 -1 1 -11z m698 -154 l24 -24 0 -326 0 -326 -26 -25 -25 -26 -352
7 c-338 6 -353 7 -369 27 -16 18 -18 50 -18 349 0 317 1 330 20 349 20 20 32
20 371 20 l351 -1 24 -24z"/>
<path d="M2660 4210 c0 -5 4 -10 9 -10 6 0 13 5 16 10 3 6 -1 10 -9 10 -9 0
-16 -4 -16 -10z"/>
<path d="M2800 4216 c0 -2 11 -6 25 -8 13 -3 22 -1 19 3 -5 9 -44 13 -44 5z"/>
<path d="M2642 4178 c7 -21 36 -34 49 -21 6 6 8 16 5 22 -10 15 -59 14 -54 -1z"/>
<path d="M2822 4182 c-20 -2 -32 -8 -29 -15 6 -18 42 -20 57 -2 16 19 13 21
-28 17z"/>
<path d="M2921 3484 c0 -11 3 -14 6 -6 3 7 2 16 -1 19 -3 4 -6 -2 -5 -13z"/>
<path d="M3441 4341 c-19 -19 -21 -32 -21 -153 l0 -131 23 21 c22 21 35 22
155 24 73 0 132 5 132 10 0 5 -15 6 -34 3 -20 -4 -36 -2 -40 4 -5 7 -13 8 -24
2 -22 -12 -101 -7 -128 7 -14 7 -21 22 -22 45 -2 54 18 64 125 65 51 0 98 4
104 8 8 4 9 3 5 -5 -6 -8 0 -10 18 -5 18 4 35 0 54 -12 15 -10 30 -18 34 -16
3 1 3 -12 -2 -28 -4 -15 -6 -31 -2 -34 3 -3 0 -6 -6 -6 -7 0 -12 -7 -12 -16 0
-8 -4 -13 -9 -10 -5 4 -20 2 -33 -4 -20 -8 -20 -10 -3 -9 11 1 108 1 216 0
179 -1 197 -3 216 -20 l21 -20 1 133 c2 136 -3 153 -39 154 -8 0 -171 3 -362
7 -342 7 -346 7 -367 -14z m59 -95 c0 -2 -8 -10 -17 -17 -16 -13 -17 -12 -4 4
13 16 21 21 21 13z"/>
<path d="M3522 4208 c-17 -17 -15 -55 4 -62 24 -9 32 0 30 36 -2 35 -15 45
-34 26z"/>
<path d="M4440 4185 c-12 -32 -6 -45 21 -45 17 0 20 6 17 32 -4 40 -25 48 -38
13z"/>
<path d="M3586 4183 c-13 -14 -5 -33 14 -33 11 0 20 6 20 14 0 15 -24 28 -34
19z"/>
<path d="M3757 4182 c-32 -4 -31 -25 1 -30 13 -2 25 3 28 13 8 20 6 21 -29 17z"/>
<path d="M4500 4165 c0 -9 9 -15 25 -15 18 0 23 4 19 15 -4 8 -15 15 -25 15
-10 0 -19 -7 -19 -15z"/>
<path d="M4678 4173 c-31 -5 -37 -18 -13 -27 21 -8 45 3 45 20 0 8 -1 13 -2
13 -2 -1 -15 -4 -30 -6z"/>
<path d="M4212 3750 c0 -14 2 -19 5 -12 2 6 2 18 0 25 -3 6 -5 1 -5 -13z"/>
<path d="M4213 3605 c0 -44 2 -61 4 -37 2 23 2 59 0 80 -2 20 -4 1 -4 -43z"/>
<path d="M3421 3374 c0 -11 3 -14 6 -6 3 7 2 16 -1 19 -3 4 -6 -2 -5 -13z"/>
<path d="M4197 3354 l-18 -24 -357 2 c-196 2 -366 7 -377 12 -19 8 -19 8 -3
-9 16 -17 45 -19 358 -23 359 -4 389 -1 411 40 16 29 7 30 -14 2z"/>
<path d="M2528 3089 c-21 -12 -24 -49 -6 -67 25 -25 78 -8 78 25 0 7 -10 13
-21 13 -18 0 -19 -3 -9 -15 18 -22 -16 -33 -37 -12 -22 21 -9 47 22 47 15 0
24 4 20 10 -8 13 -25 12 -47 -1z"/>
<path d="M3618 3083 c0 -10 0 -28 1 -40 1 -16 -4 -23 -15 -23 -11 0 -15 6 -11
20 6 24 -11 27 -20 4 -8 -21 19 -46 40 -38 12 4 17 18 17 50 0 43 -8 62 -12
27z"/>
<path d="M3785 3077 c-4 -13 -5 -29 -3 -37 2 -8 -5 -16 -14 -18 -21 -4 -24 18
-5 37 10 10 9 11 -5 6 -17 -7 -26 -54 -10 -56 4 0 17 -2 30 -5 20 -4 22 0 22
46 0 54 -6 64 -15 27z"/>
<path d="M2768 3075 c-6 -7 13 -65 22 -65 3 0 5 14 4 32 -1 30 -13 46 -26 33z"/>
<path d="M3487 3073 c-11 -17 6 -63 22 -63 13 0 13 2 2 9 -8 5 -11 16 -7 29 7
20 -8 40 -17 25z"/>
<path d="M2621 3056 c-20 -24 -6 -46 29 -46 28 0 31 3 28 28 -4 32 -37 42 -57
18z m39 -22 c0 -8 -7 -14 -15 -14 -15 0 -21 21 -9 33 10 9 24 -2 24 -19z"/>
<path d="M2830 3055 c-18 -21 -5 -47 22 -43 26 3 37 36 16 49 -18 12 -24 11
-38 -6z m35 -15 c0 -7 -6 -15 -12 -17 -8 -3 -13 4 -13 17 0 13 5 20 13 18 6
-3 12 -11 12 -18z"/>
<path d="M3038 3059 c18 -19 15 -41 -5 -37 -11 2 -17 11 -15 21 2 9 -2 17 -8
17 -5 0 -10 -19 -10 -42 1 -38 2 -41 14 -25 7 9 21 17 30 17 22 0 18 51 -4 58
-12 4 -13 2 -2 -9z"/>
<path d="M3090 3055 c-18 -21 -5 -47 22 -43 26 3 37 36 16 49 -18 12 -24 11
-38 -6z m38 -17 c-3 -7 -11 -13 -18 -13 -7 0 -15 6 -17 13 -3 7 4 12 17 12 13
0 20 -5 18 -12z"/>
<path d="M3252 3061 c-22 -14 -10 -46 18 -48 25 -3 25 -3 3 7 -25 10 -21 45 4
36 8 -3 11 -1 8 4 -7 12 -16 12 -33 1z"/>
<path d="M3333 3063 c-7 -2 -13 -15 -13 -28 0 -25 15 -34 43 -27 18 5 25 52 7
52 -5 0 -10 -9 -10 -20 0 -11 -7 -20 -15 -20 -18 0 -20 21 -3 38 13 13 11 14
-9 5z"/>
<path d="M3418 3062 c-11 -2 -18 -13 -18 -28 0 -14 4 -22 10 -19 6 3 10 13 10
21 0 24 24 11 31 -17 6 -22 7 -21 8 7 1 33 -11 43 -41 36z"/>
<path d="M3673 3063 c-15 -5 -17 -52 -3 -54 40 -5 45 -3 48 22 3 27 -18 41
-45 32z m27 -29 c0 -8 -7 -14 -15 -14 -15 0 -21 21 -9 33 10 9 24 -2 24 -19z"/>
<path d="M2700 3050 c0 -6 8 -14 17 -17 15 -6 15 -7 -3 -14 -16 -6 -15 -8 9
-8 32 -1 34 8 7 32 -23 20 -30 21 -30 7z"/>
<path d="M2900 3050 c0 -6 7 -13 16 -17 13 -5 13 -7 2 -14 -9 -6 -7 -9 10 -9
13 0 22 6 22 15 0 8 -7 15 -15 15 -8 0 -15 5 -15 10 0 6 -4 10 -10 10 -5 0
-10 -5 -10 -10z"/>
<path d="M3160 3033 c0 -29 2 -29 19 5 10 18 9 22 -4 22 -10 0 -15 -9 -15 -27z"/>
<path d="M3542 3035 c0 -16 2 -22 5 -12 2 9 2 23 0 30 -3 6 -5 -1 -5 -18z"/>
<path d="M2542 2870 c0 -14 2 -19 5 -12 2 6 2 18 0 25 -3 6 -5 1 -5 -13z"/>
<path d="M3368 2883 c7 -3 16 -2 19 1 4 3 -2 6 -13 5 -11 0 -14 -3 -6 -6z"/>
<path d="M3465 2877 c-25 -29 -26 -40 -2 -18 15 14 27 26 27 28 0 7 -16 1 -25
-10z"/>
<path d="M3576 2878 c3 -4 11 -5 19 -1 21 7 19 12 -4 10 -11 0 -18 -5 -15 -9z"/>
<path d="M3888 2883 c7 -3 16 -2 19 1 4 3 -2 6 -13 5 -11 0 -14 -3 -6 -6z"/>
<path d="M4620 2886 c0 -2 9 -6 20 -9 11 -3 20 -1 20 4 0 5 -9 9 -20 9 -11 0
-20 -2 -20 -4z"/>
<path d="M4680 2881 c0 -4 11 -6 25 -3 14 2 25 6 25 8 0 2 -11 4 -25 4 -14 0
-25 -4 -25 -9z"/>
<path d="M3512 2868 c-7 -7 -12 -18 -12 -24 0 -7 -5 -16 -12 -20 -7 -5 -8 -2
-3 7 6 11 5 11 -5 2 -7 -7 -9 -17 -4 -25 5 -7 9 -19 11 -27 4 -26 44 -40 70
-23 19 12 19 67 0 96 -19 29 -27 32 -45 14z"/>
<path d="M2505 2859 c-4 -6 -5 -12 -2 -15 2 -3 7 2 10 11 7 17 1 20 -8 4z"/>
<path d="M3766 2854 c-10 -25 1 -29 14 -5 6 12 7 21 1 21 -5 0 -12 -7 -15 -16z"/>
<path d="M4865 2860 c-3 -6 1 -7 9 -4 18 7 21 14 7 14 -6 0 -13 -4 -16 -10z"/>
<path d="M4765 2849 c-18 -9 -18 -9 3 -5 15 3 22 -1 22 -11 0 -11 -7 -14 -25
-11 -25 5 -30 -1 -25 -32 3 -20 19 -30 50 -30 32 0 46 10 54 36 6 19 3 21 -19
16 -20 -3 -25 0 -25 16 0 26 -10 32 -35 21z"/>
<path d="M4694 2835 c-3 -8 -4 -20 -2 -27 3 -7 7 -1 10 15 6 29 1 36 -8 12z"/>
<path d="M3614 2809 c-5 -8 -3 -9 6 -4 7 4 16 2 22 -6 8 -12 9 -12 6 0 -6 20
-24 25 -34 10z"/>
<path d="M4871 2808 c0 -9 -4 -25 -7 -35 -5 -17 -5 -17 6 0 6 10 9 25 7 35 -4
15 -5 15 -6 0z"/>
<path d="M2577 2802 c-36 -15 -47 -58 -47 -188 0 -76 4 -124 10 -124 6 0 10
-5 10 -11 0 -6 8 -18 17 -27 14 -14 41 -17 182 -17 91 -1 174 3 184 8 45 21
54 151 14 191 -16 16 -17 13 -17 -58 l0 -76 -44 0 -44 0 -4 55 c-1 30 -1 60 0
65 2 6 21 10 43 10 21 0 39 4 39 8 0 5 -15 8 -32 8 -29 -1 -33 2 -36 28 -3 27
-28 63 -37 55 -2 -2 -5 -53 -7 -114 l-5 -110 -46 -3 -47 -3 0 123 0 123 45 0
c25 0 45 3 45 7 0 5 -15 8 -34 8 -44 0 -66 9 -66 25 0 22 -83 33 -123 17z
m104 -152 c-1 -79 -3 -145 -4 -146 -1 -1 -22 -4 -47 -5 l-45 -4 -3 134 c-1 74
-7 140 -13 147 -12 15 7 21 70 20 l43 -1 -1 -145z"/>
<path d="M3844 2630 c0 -98 4 -182 9 -186 4 -4 90 -8 190 -8 174 -1 183 0 206
21 22 20 23 27 17 89 -7 74 -29 101 -74 95 -28 -3 -53 15 -45 35 3 8 -1 14 -8
14 -10 0 -10 3 -1 12 8 8 6 17 -11 34 -12 13 -26 24 -32 24 -6 0 -6 -3 0 -9 6
-6 9 -63 7 -130 l-3 -119 -45 -4 -44 -3 -1 105 c0 58 -2 113 -4 123 -2 9 0 17
4 17 4 0 7 9 7 20 0 11 -4 20 -8 20 -4 0 -8 6 -8 13 0 7 -9 13 -21 14 -16 2
-18 -1 -9 -11 7 -9 10 -63 8 -156 l-3 -143 -42 1 c-24 0 -47 1 -51 1 -12 1
-14 282 -3 295 6 7 1 11 -14 12 l-23 2 2 -178z m381 -65 l0 -60 -47 -3 -48 -3
0 59 c0 32 3 62 7 66 4 4 25 6 48 4 l40 -3 0 -60z"/>
<path d="M3935 2800 c3 -5 8 -10 11 -10 2 0 4 5 4 10 0 6 -5 10 -11 10 -5 0
-7 -4 -4 -10z"/>
<path d="M3765 2405 c0 -220 1 -309 2 -197 2 112 2 292 0 400 -1 108 -2 17 -2
-203z"/>
<path d="M3631 2744 c0 -11 3 -14 6 -6 3 7 2 16 -1 19 -3 4 -6 -2 -5 -13z"/>
<path d="M4034 2748 c-3 -4 6 -8 20 -8 14 0 26 4 26 8 0 4 -9 8 -21 8 -11 0
-23 -4 -25 -8z"/>
<path d="M3140 2692 c0 -5 -12 -13 -27 -20 -26 -10 -26 -11 -3 -6 28 7 62 34
42 34 -7 0 -12 -4 -12 -8z"/>
<path d="M4453 2669 c-2 -16 2 -17 18 -9 24 13 24 16 1 22 -12 4 -18 -1 -19
-13z"/>
<path d="M3055 2670 c-3 -6 1 -7 9 -4 18 7 21 14 7 14 -6 0 -13 -4 -16 -10z"/>
<path d="M3155 2669 c-3 -4 15 -6 41 -3 42 4 46 2 41 -15 -3 -11 1 -22 9 -25
7 -3 11 -12 8 -21 -9 -22 -70 -20 -79 3 -6 16 -7 16 -19 0 -9 -13 -27 -18 -58
-18 -43 0 -46 2 -52 31 -8 43 -26 26 -26 -26 0 -66 13 -92 50 -97 17 -3 33 -1
36 4 3 4 15 8 27 7 21 0 21 -1 2 -10 -16 -7 -12 -8 14 -4 18 3 46 5 61 5 29 0
50 23 65 69 5 18 4 22 -6 15 -11 -6 -12 -5 -3 7 14 18 17 72 4 64 -6 -3 -13 1
-16 9 -6 16 -90 21 -99 5z m-65 -109 c0 -5 -9 -10 -19 -10 -11 0 -23 5 -26 10
-4 6 5 10 19 10 14 0 26 -4 26 -10z m160 -2 c0 -5 -33 -8 -74 -7 -41 2 -72 7
-70 11 7 11 144 7 144 -4z m-195 -38 c3 -5 1 -10 -4 -10 -6 0 -11 5 -11 10 0
6 2 10 4 10 3 0 8 -4 11 -10z"/>
<path d="M4405 2670 c-3 -5 1 -10 9 -10 8 0 18 5 21 10 3 6 -1 10 -9 10 -8 0
-18 -4 -21 -10z"/>
<path d="M4504 2669 c-3 -5 6 -9 20 -9 13 0 27 -6 29 -12 4 -8 6 -7 6 4 1 9 6
18 12 20 7 2 -5 4 -25 5 -20 1 -39 -3 -42 -8z"/>
<path d="M4381 2632 c-20 -37 -3 -120 21 -106 8 5 9 1 5 -10 -6 -14 1 -16 51
-15 31 2 68 -1 81 -5 16 -6 21 -5 17 3 -5 7 -1 9 9 5 10 -4 27 4 44 22 24 23
27 33 20 52 -6 15 -5 21 1 17 6 -3 10 -1 10 4 0 6 -6 11 -12 11 -9 0 -8 4 2
10 12 8 11 10 -7 10 -12 0 -24 6 -26 13 -4 9 -6 9 -6 0 -1 -6 4 -15 9 -18 6
-3 10 -13 10 -21 0 -17 -70 -17 -83 0 -6 8 -10 7 -14 -1 -3 -8 -25 -13 -60
-13 -47 0 -54 2 -49 18 3 9 2 23 -3 31 -7 11 -11 9 -20 -7z m229 -72 c5 -4
-202 -17 -209 -13 -1 1 -1 6 2 10 5 8 195 10 207 3z"/>
<path d="M2725 2320 c-3 -6 1 -7 9 -4 18 7 21 14 7 14 -6 0 -13 -4 -16 -10z"/>
<path d="M2800 2315 c-7 -9 -11 -17 -9 -20 3 -2 10 5 17 15 14 24 10 26 -8 5z"/>
<path d="M2857 2309 c-12 -13 -24 -18 -35 -14 -13 5 -14 3 -6 -5 14 -14 48 1
58 25 7 20 4 19 -17 -6z"/>
<path d="M3883 2316 c-3 -5 -1 -6 5 -2 5 3 13 0 15 -6 4 -10 6 -10 6 0 1 7 6
10 11 7 6 -3 10 -2 10 4 0 12 -39 10 -47 -3z"/>
<path d="M3950 2320 c0 -6 7 -10 15 -10 8 0 15 2 15 4 0 2 -7 6 -15 10 -8 3
-15 1 -15 -4z"/>
<path d="M4121 2314 c0 -11 3 -14 6 -6 3 7 2 16 -1 19 -3 4 -6 -2 -5 -13z"/>
<path d="M4155 2321 c-3 -5 -2 -12 3 -15 5 -3 9 1 9 9 0 17 -3 19 -12 6z"/>
<path d="M4190 2320 c-9 -6 -10 -10 -3 -10 6 0 15 5 18 10 8 12 4 12 -15 0z"/>
<path d="M4680 2320 c0 -5 5 -10 11 -10 5 0 7 5 4 10 -3 6 -8 10 -11 10 -2 0
-4 -4 -4 -10z"/>
<path d="M2754 2308 c-12 -19 -14 -37 -4 -43 4 -3 10 2 14 10 3 8 0 15 -7 15
-8 0 -7 4 3 10 8 5 12 12 8 15 -3 4 -10 0 -14 -7z"/>
<path d="M4638 2313 c7 -3 16 -2 19 1 4 3 -2 6 -13 5 -11 0 -14 -3 -6 -6z"/>
<path d="M4755 2312 c-10 -7 -18 -32 -10 -32 2 0 9 9 15 20 12 22 11 24 -5 12z"/>
<path d="M4095 2300 c-4 -6 -11 -8 -16 -5 -16 10 -10 -2 9 -16 9 -7 14 -9 10
-5 -4 5 -3 15 3 23 6 7 9 13 6 13 -3 0 -9 -5 -12 -10z"/>
<path d="M2875 2290 c-3 -5 -1 -10 4 -10 6 0 11 5 11 10 0 6 -2 10 -4 10 -3 0
-8 -4 -11 -10z"/>
<path d="M2930 2290 c0 -4 7 -7 15 -6 23 3 26 12 5 13 -11 1 -20 -2 -20 -7z"/>
<path d="M3922 2291 c-11 -6 -10 -10 4 -15 9 -3 19 -4 22 -1 3 3 -1 5 -9 5
-11 0 -11 2 1 10 8 5 11 10 5 10 -5 0 -16 -4 -23 -9z"/>
<path d="M4630 2282 c-13 -14 -12 -15 3 -9 10 4 17 2 17 -5 0 -6 3 -9 6 -5 3
3 2 12 -3 20 -7 13 -10 13 -23 -1z"/>
<path d="M4808 2288 c9 -9 15 -9 24 0 9 9 7 12 -12 12 -19 0 -21 -3 -12 -12z"/>
<path d="M4340 2281 c0 -6 7 -7 17 -4 12 5 14 3 8 -8 -6 -11 -5 -11 5 -2 8 7
26 9 44 6 17 -3 28 -3 25 0 -10 12 -99 18 -99 8z"/>
<path d="M4475 2280 c-3 -5 -1 -10 4 -10 6 0 11 5 11 10 0 6 -2 10 -4 10 -3 0
-8 -4 -11 -10z"/>
<path d="M4138 2273 c7 -3 16 -2 19 1 4 3 -2 6 -13 5 -11 0 -14 -3 -6 -6z"/>
<path d="M4535 2272 c11 -2 22 -7 25 -11 3 -4 15 -2 27 4 20 11 18 12 -25 12
-26 0 -38 -2 -27 -5z"/>
<path d="M4768 2273 c6 -2 18 -2 25 0 6 3 1 5 -13 5 -14 0 -19 -2 -12 -5z"/>
<path d="M3010 2260 c0 -5 5 -10 11 -10 5 0 7 5 4 10 -3 6 -8 10 -11 10 -2 0
-4 -4 -4 -10z"/>
<path d="M3856 2253 c-6 -14 -5 -15 5 -6 7 7 10 15 7 18 -3 3 -9 -2 -12 -12z"/>
<path d="M4851 2234 c0 -11 3 -14 6 -6 3 7 2 16 -1 19 -3 4 -6 -2 -5 -13z"/>
<path d="M2880 2204 c-14 -8 -17 -13 -7 -10 20 6 37 -22 19 -33 -7 -4 -8 -12
-2 -21 8 -13 10 -12 10 3 0 9 5 17 12 17 6 0 8 3 5 7 -4 3 -2 12 5 20 9 11 7
12 -7 6 -14 -5 -17 -3 -12 10 8 20 8 20 -23 1z"/>
<path d="M2820 2200 c0 -5 9 -14 20 -20 11 -6 20 -9 20 -8 0 2 -9 11 -20 21
-11 9 -20 13 -20 7z"/>
<path d="M4441 2192 c-7 -14 -6 -19 3 -19 6 0 13 9 13 19 1 10 0 18 -2 18 -2
0 -9 -8 -14 -18z"/>
<path d="M3935 2190 c3 -5 8 -10 11 -10 2 0 4 5 4 10 0 6 -5 10 -11 10 -5 0
-7 -4 -4 -10z"/>
<path d="M4024 2185 c1 -8 8 -21 16 -28 12 -10 12 -9 2 4 -6 9 -9 18 -6 21 3
3 1 9 -4 12 -6 3 -9 -1 -8 -9z"/>
<path d="M4125 2190 c-3 -6 1 -7 9 -4 18 7 21 14 7 14 -6 0 -13 -4 -16 -10z"/>
<path d="M4521 2184 c0 -11 3 -14 6 -6 3 7 2 16 -1 19 -3 4 -6 -2 -5 -13z"/>
<path d="M4650 2196 c0 -2 8 -10 18 -17 15 -13 16 -12 3 4 -13 16 -21 21 -21
13z"/>
<path d="M4710 2185 c-14 -8 -20 -14 -14 -15 5 0 19 7 30 15 24 18 16 19 -16
0z"/>
<path d="M4785 2190 c-3 -6 1 -7 9 -4 18 7 21 14 7 14 -6 0 -13 -4 -16 -10z"/>
<path d="M4825 2190 c-3 -5 -1 -10 4 -10 6 0 11 5 11 10 0 6 -2 10 -4 10 -3 0
-8 -4 -11 -10z"/>
<path d="M3026 2173 c-6 -14 -5 -15 5 -6 7 7 10 15 7 18 -3 3 -9 -2 -12 -12z"/>
<path d="M4200 2169 c0 -5 5 -7 10 -4 6 3 10 8 10 11 0 2 -4 4 -10 4 -5 0 -10
-5 -10 -11z"/>
<path d="M2946 2159 c2 -4 -4 -9 -13 -11 -14 -3 -13 -5 5 -10 13 -4 21 -4 18
-1 -3 4 -1 11 4 18 7 8 5 12 -5 12 -8 0 -12 -4 -9 -8z"/>
<path d="M3110 2160 c0 -5 7 -10 15 -10 13 0 19 -12 16 -32 0 -4 7 -4 16 -1 9
4 12 8 6 10 -6 2 -9 14 -6 26 3 16 2 18 -5 8 -7 -9 -12 -10 -16 -2 -9 14 -26
14 -26 1z"/>
<path d="M4093 2146 c-15 -15 -17 -23 -8 -23 7 0 18 11 24 24 13 29 12 29 -16
-1z"/>
<path d="M3040 2156 c0 -2 7 -7 16 -10 8 -3 12 -2 9 4 -6 10 -25 14 -25 6z"/>
<path d="M4253 2145 c-3 -9 -3 -19 1 -22 3 -4 6 1 6 10 0 8 6 18 13 20 9 4 9
6 -1 6 -7 1 -15 -6 -19 -14z"/>
<path d="M4116 2133 c-4 -10 -4 -14 0 -11 4 4 15 3 25 -3 15 -7 19 -7 17 3 -2
7 4 12 12 10 13 -3 13 -1 1 10 -11 10 -14 10 -18 1 -3 -7 -9 -13 -14 -13 -6 0
-7 5 -4 10 3 6 2 10 -3 10 -6 0 -13 -8 -16 -17z"/>
<path d="M4313 2135 c0 -16 4 -17 52 -19 25 -1 31 -6 35 -31 4 -22 7 -26 12
-14 4 9 0 26 -7 37 -8 10 -12 22 -10 26 3 3 2 4 -2 1 -3 -3 -13 1 -21 8 -13 9
-14 9 -8 0 9 -16 -25 -18 -40 -3 -7 7 -11 6 -11 -5z"/>
<path d="M3230 2132 c0 -5 7 -9 15 -9 8 0 12 4 9 9 -3 4 -9 8 -15 8 -5 0 -9
-4 -9 -8z"/>
<path d="M3260 2091 c0 -6 4 -13 10 -16 6 -3 7 1 4 9 -7 18 -14 21 -14 7z"/>
<path d="M2500 2081 c0 -6 4 -13 10 -16 6 -3 7 1 4 9 -7 18 -14 21 -14 7z"/>
<path d="M3239 2034 c-17 -18 -19 -23 -6 -18 9 3 17 11 17 17 0 6 6 3 13 -7
12 -16 14 -16 14 -2 0 9 -4 16 -9 16 -5 0 -6 5 -3 10 11 18 -1 11 -26 -16z"/>
<path d="M4055 2040 c-10 -11 -13 -20 -7 -20 6 0 16 9 22 20 6 11 9 20 7 20
-2 0 -12 -9 -22 -20z"/>
<path d="M2511 2034 c0 -11 3 -14 6 -6 3 7 2 16 -1 19 -3 4 -6 -2 -5 -13z"/>
<path d="M3110 2027 c-10 -19 -9 -20 2 -6 7 9 19 14 26 12 17 -6 15 4 -3 11
-9 3 -19 -3 -25 -17z"/>
<path d="M3210 2041 c0 -7 -5 -9 -12 -5 -7 5 -8 3 -3 -5 5 -9 10 -10 18 -2 6
6 8 14 4 18 -4 3 -7 1 -7 -6z"/>
<path d="M4881 2038 c-1 -9 -9 -22 -18 -27 -10 -6 -13 -11 -7 -11 17 0 37 27
31 42 -4 8 -6 7 -6 -4z"/>
<path d="M2905 2030 c3 -5 8 -10 11 -10 2 0 4 5 4 10 0 6 -5 10 -11 10 -5 0
-7 -4 -4 -10z"/>
<path d="M2946 2025 c10 -8 23 -15 28 -15 6 0 1 7 -10 15 -10 8 -23 15 -28 15
-6 0 -1 -7 10 -15z"/>
<path d="M2970 2036 c0 -2 7 -7 16 -10 8 -3 12 -2 9 4 -6 10 -25 14 -25 6z"/>
<path d="M4166 2023 c-6 -14 -5 -15 5 -6 7 7 10 15 7 18 -3 3 -9 -2 -12 -12z"/>
<path d="M4366 2031 c-3 -5 1 -12 10 -15 8 -3 13 -2 9 3 -3 5 1 12 7 14 8 4 7
6 -4 6 -9 1 -19 -3 -22 -8z"/>
<path d="M4210 2026 c0 -2 7 -7 16 -10 8 -3 12 -2 9 4 -6 10 -25 14 -25 6z"/>
<path d="M3610 2005 c-11 -13 -10 -14 4 -9 9 3 16 10 16 15 0 13 -6 11 -20 -6z"/>
<path d="M4258 2009 c-27 -15 -22 -29 10 -29 21 0 24 2 12 10 -13 9 -13 11 0
20 20 13 0 12 -22 -1z"/>
<path d="M2525 2000 c3 -4 14 -10 25 -13 11 -3 18 -2 15 3 -3 4 -14 10 -25 13
-11 3 -18 2 -15 -3z"/>
<path d="M2785 1990 c-19 -8 -19 -9 2 -9 12 -1 25 4 28 9 7 12 -2 12 -30 0z"/>
<path d="M2842 1988 c-9 -3 21 -6 68 -6 86 1 85 5 -3 10 -26 2 -55 0 -65 -4z"/>
<path d="M3010 1990 c0 -5 7 -10 15 -10 8 0 15 5 15 10 0 6 -7 10 -15 10 -8 0
-15 -4 -15 -10z"/>
<path d="M3275 1989 c-57 -5 -56 -6 28 -7 48 -1 87 2 87 6 0 10 -26 10 -115 1z"/>
<path d="M3410 1990 c0 -5 5 -10 10 -10 6 0 10 5 10 10 0 6 -4 10 -10 10 -5 0
-10 -4 -10 -10z"/>
<path d="M3475 1989 c-21 -5 -8 -7 44 -8 41 0 72 1 70 3 -9 8 -86 12 -114 5z"/>
<path d="M3806 1989 c3 -5 30 -9 61 -9 31 0 54 2 52 4 -9 8 -119 13 -113 5z"/>
<path d="M4200 1990 c0 -5 5 -10 10 -10 6 0 10 5 10 10 0 6 -4 10 -10 10 -5 0
-10 -4 -10 -10z"/>
<path d="M4485 1990 c-4 -6 10 -10 34 -10 23 0 41 5 41 10 0 6 -15 10 -34 10
-19 0 -38 -4 -41 -10z"/>
<path d="M4570 1990 c0 -5 5 -10 10 -10 6 0 10 5 10 10 0 6 -4 10 -10 10 -5 0
-10 -4 -10 -10z"/>
<path d="M4800 1992 c0 -4 9 -8 20 -9 11 -1 20 2 20 8 0 5 -9 9 -20 9 -11 0
-20 -4 -20 -8z"/>
<path d="M2653 1983 c20 -2 54 -2 75 0 20 2 3 4 -38 4 -41 0 -58 -2 -37 -4z"/>
<path d="M3088 1983 c23 -2 59 -2 80 0 20 2 1 4 -43 4 -44 0 -61 -2 -37 -4z"/>
<path d="M3988 1983 c34 -2 90 -2 125 0 34 2 6 3 -63 3 -69 0 -97 -1 -62 -3z"/>
<path d="M4448 1983 c7 -3 16 -2 19 1 4 3 -2 6 -13 5 -11 0 -14 -3 -6 -6z"/>
<path d="M2513 1806 c2 -42 23 -64 51 -53 12 5 16 18 14 49 -1 41 -1 41 -5 8
-8 -66 -37 -65 -53 2 l-9 33 2 -39z"/>
<path d="M2700 1801 c0 -22 5 -43 10 -46 6 -4 10 12 10 39 0 25 -4 46 -10 46
-5 0 -10 -18 -10 -39z"/>
<path d="M2820 1825 c0 -8 -9 -15 -19 -15 -21 0 -33 -22 -24 -46 3 -9 15 -14
32 -12 23 3 26 8 29 46 2 25 -1 42 -7 42 -6 0 -11 -7 -11 -15z m-2 -42 c-5
-25 -28 -28 -28 -4 0 12 6 21 16 21 9 0 14 -7 12 -17z"/>
<path d="M2990 1830 c0 -6 -12 -15 -26 -20 -36 -14 -30 -54 9 -58 26 -3 27 -2
27 42 0 25 -2 46 -5 46 -3 0 -5 -5 -5 -10z m-4 -41 c10 -17 -13 -36 -27 -22
-12 12 -4 33 11 33 5 0 12 -5 16 -11z"/>
<path d="M2608 1818 c-7 -20 6 -61 21 -66 10 -3 11 0 2 15 -7 13 -7 23 0 30 6
6 5 14 -4 22 -11 9 -16 9 -19 -1z"/>
<path d="M2672 1780 c0 -19 2 -27 5 -17 2 9 2 25 0 35 -3 9 -5 1 -5 -18z"/>
<path d="M2742 1780 c0 -19 2 -27 5 -17 2 9 2 25 0 35 -3 9 -5 1 -5 -18z"/>
<path d="M2856 1794 c-9 -22 13 -46 38 -42 15 2 22 12 24 31 3 24 0 27 -26 27
-18 0 -32 -6 -36 -16z m44 -8 c0 -8 -4 -17 -9 -21 -12 -7 -24 12 -16 25 9 15
25 12 25 -4z"/>
<path d="M2607 1632 c-16 -2 -31 -10 -34 -18 -3 -8 -11 -14 -19 -14 -8 0 -14
-4 -14 -9 0 -5 -8 -17 -17 -27 -16 -15 -18 -42 -21 -190 -4 -181 4 -228 34
-203 12 10 13 9 9 -3 -5 -13 9 -16 87 -19 51 -2 176 -2 278 2 102 3 161 6 131
7 -44 2 -52 5 -47 18 3 9 6 18 6 20 0 2 8 4 18 4 14 0 15 2 2 10 -12 7 -12 12
-2 22 13 13 17 42 5 35 -5 -3 -7 38 -5 91 5 127 -5 222 -23 222 -7 0 -22 10
-32 23 -16 20 -29 23 -100 26 -149 5 -228 6 -256 3z m-77 -443 c0 -6 -4 -7
-10 -4 -5 3 -10 11 -10 16 0 6 5 7 10 4 6 -3 10 -11 10 -16z"/>
<path d="M3339 1635 c-3 -2 -19 -5 -37 -7 -18 -1 -32 -5 -32 -9 0 -4 -14 -12
-30 -19 -38 -16 -100 -77 -100 -98 0 -15 -2 -15 -10 -2 -8 11 -9 8 -4 -12 4
-17 0 -35 -10 -50 -21 -29 -22 -128 -2 -128 9 0 13 -12 11 -39 -2 -32 1 -38
13 -33 12 4 14 1 9 -12 -5 -13 -3 -17 7 -13 8 3 13 -1 12 -11 -1 -10 8 -18 22
-20 12 -2 22 -7 22 -12 0 -5 -10 -11 -22 -13 -26 -5 128 -9 237 -7 62 1 73 5
106 33 21 18 38 38 38 45 1 6 6 12 11 12 6 0 10 6 10 13 0 6 7 25 15 41 17 32
17 95 1 161 -13 47 -55 115 -73 115 -6 0 -18 9 -26 20 -8 11 -16 17 -19 14 -3
-3 -22 4 -42 16 -33 18 -95 27 -107 15z m49 -134 c10 -6 8 -10 -10 -14 -12 -4
-32 -7 -42 -7 -20 0 -20 0 0 15 22 17 34 18 52 6z m57 -56 c7 -38 1 -142 -9
-152 -9 -10 -126 -10 -148 -1 -15 6 -18 21 -18 91 0 46 2 86 4 88 2 2 41 4 85
4 l81 0 5 -30z"/>
<path d="M3284 1445 c-8 -19 3 -35 26 -35 16 0 30 18 30 41 0 15 -50 10 -56
-6z m36 -9 c0 -2 -7 -6 -15 -10 -8 -3 -15 -1 -15 4 0 6 7 10 15 10 8 0 15 -2
15 -4z"/>
<path d="M3287 1393 c-16 -15 -5 -33 19 -33 15 0 23 4 19 11 -4 6 -13 8 -21 5
-8 -3 -14 -1 -14 5 0 7 10 9 25 5 14 -4 25 -2 25 4 0 11 -43 14 -53 3z"/>
<path d="M3368 1373 c12 -2 32 -2 45 0 12 2 2 4 -23 4 -25 0 -35 -2 -22 -4z"/>
<path d="M3290 1335 c-15 -18 -5 -35 21 -35 11 0 18 4 14 9 -3 5 -1 12 5 16
13 8 3 25 -14 25 -8 0 -19 -7 -26 -15z m20 -9 c0 -3 -4 -8 -10 -11 -5 -3 -10
-1 -10 4 0 6 5 11 10 11 6 0 10 -2 10 -4z"/>
<path d="M3498 1633 c7 -3 16 -2 19 1 4 3 -2 6 -13 5 -11 0 -14 -3 -6 -6z"/>
<path d="M4258 1633 c12 -2 32 -2 45 0 12 2 2 4 -23 4 -25 0 -35 -2 -22 -4z"/>
<path d="M3740 1595 c-13 -14 -20 -25 -16 -25 5 0 4 -6 -1 -12 -17 -21 -9
-105 12 -127 10 -12 21 -18 25 -16 5 3 10 1 12 -4 1 -5 20 -11 41 -14 48 -6
52 -10 36 -39 -8 -16 -14 -19 -17 -9 -3 10 -6 10 -12 1 -6 -9 -13 -9 -29 -1
-17 10 -21 9 -21 -4 0 -9 -5 -13 -10 -10 -6 3 -13 -1 -16 -10 -6 -13 -8 -14
-15 -3 -6 8 -9 0 -9 -25 0 -23 -4 -36 -10 -32 -5 3 -10 1 -10 -4 0 -6 4 -11 9
-11 5 0 11 -13 13 -30 3 -16 1 -30 -3 -30 -5 0 -6 -7 -2 -15 5 -13 -5 -15 -61
-14 -37 1 -69 -1 -73 -5 -9 -9 555 -6 602 3 30 7 34 9 15 11 -14 1 -20 4 -14
6 7 3 10 19 7 39 -3 25 -1 35 9 35 10 0 10 2 -1 9 -11 7 -13 32 -8 125 5 110
4 118 -17 142 -15 18 -32 26 -58 27 -21 0 -34 5 -31 11 4 5 -3 7 -17 3 -17 -4
-30 2 -52 24 -29 29 -31 29 -142 29 -107 0 -114 -1 -136 -25z m241 -17 c1 -7
2 -22 3 -33 1 -18 8 -20 81 -20 l80 0 0 -155 0 -155 -147 -2 -148 -3 0 54 c0
63 19 88 51 67 19 -11 19 -10 8 10 -6 13 -9 45 -7 75 3 35 1 54 -6 55 -6 0
-32 0 -58 -1 l-48 -1 0 60 0 61 95 0 c69 0 95 -3 96 -12z"/>
<path d="M3811 1523 c-1 -18 4 -23 22 -22 15 1 17 3 5 6 -9 2 -19 12 -21 21
-3 12 -5 10 -6 -5z"/>
<path d="M3850 1534 c0 -3 7 -12 15 -20 16 -17 18 -14 9 10 -6 15 -24 23 -24
10z"/>
<path d="M3901 1518 c0 -22 1 -22 8 -3 l8 20 5 -20 c5 -18 6 -18 7 3 1 13 -5
22 -14 22 -9 0 -15 -9 -14 -22z"/>
<path d="M4004 1483 c-29 -6 -48 -62 -33 -96 25 -55 106 -54 129 3 14 33 3 60
-32 84 -23 16 -26 17 -64 9z m69 -63 c4 -17 1 -19 -36 -17 -50 3 -61 24 -15
30 18 2 36 5 39 5 4 1 9 -7 12 -18z"/>
<path d="M3979 1282 c9 -7 10 -11 2 -15 -7 -4 -8 -5 -1 -3 16 2 14 20 -2 24
-10 3 -10 2 1 -6z"/>
<path d="M2507 1593 c-4 -3 -7 -11 -7 -17 0 -6 5 -5 12 2 6 6 9 14 7 17 -3 3
-9 2 -12 -2z"/>
<path d="M4405 1581 c-3 -5 -2 -12 3 -15 5 -3 9 1 9 9 0 17 -3 19 -12 6z"/>
<path d="M4871 1564 c0 -11 3 -14 6 -6 3 7 2 16 -1 19 -3 4 -6 -2 -5 -13z"/>
<path d="M4630 1488 c0 -39 3 -46 15 -41 14 5 16 -6 14 -73 -1 -44 -4 -74 -6
-67 -2 7 -11 9 -19 6 -7 -3 -12 -9 -9 -13 3 -5 -5 -6 -17 -2 -14 3 -19 2 -14
-6 4 -7 17 -12 30 -12 12 0 28 -6 35 -12 12 -11 13 -10 7 6 -5 14 -2 17 9 12
9 -3 13 -2 10 4 -3 6 -1 10 4 10 6 0 11 10 11 23 0 17 2 19 9 8 8 -12 11 -9
16 12 7 27 25 38 25 15 0 -9 4 -8 10 2 13 20 13 33 0 25 -5 -3 -10 0 -10 7 0
7 -27 42 -60 78 l-59 65 -1 -47z"/>
<path d="M4872 1500 c0 -14 2 -19 5 -12 2 6 2 18 0 25 -3 6 -5 1 -5 -13z"/>
<path d="M4343 1485 c-8 -22 6 -33 17 -15 13 20 12 30 0 30 -6 0 -13 -7 -17
-15z"/>
<path d="M4873 1380 c0 -47 2 -66 4 -42 2 23 2 61 0 85 -2 23 -4 4 -4 -43z"/>
<path d="M4337 1436 c-4 -10 -5 -21 -2 -24 9 -9 17 6 13 25 -3 17 -4 17 -11
-1z"/>
<path d="M4550 1441 c0 -19 22 -23 38 -7 15 15 14 16 -11 16 -15 0 -27 -4 -27
-9z"/>
<path d="M4333 1364 c7 -51 17 -55 15 -6 -1 23 -5 42 -10 42 -6 0 -7 -16 -5
-36z"/>
<path d="M4791 1304 c0 -11 3 -14 6 -6 3 7 2 16 -1 19 -3 4 -6 -2 -5 -13z"/>
<path d="M4361 1303 c0 -5 4 -17 9 -28 8 -17 8 -16 7 8 -1 15 -5 27 -9 27 -4
0 -8 -3 -7 -7z"/>
<path d="M4392 1248 c2 -6 10 -14 16 -16 7 -2 10 2 6 12 -7 18 -28 22 -22 4z"/>
<path d="M4872 1230 c0 -14 2 -19 5 -12 2 6 2 18 0 25 -3 6 -5 1 -5 -13z"/>
<path d="M4538 1218 c20 -20 22 -20 54 -5 26 13 29 17 13 18 -11 1 -35 3 -54
5 l-34 2 21 -20z"/>
<path d="M4716 1225 c-3 -9 -19 -18 -36 -21 -17 -4 -33 -11 -36 -15 -11 -18
-122 -10 -156 11 -35 21 -63 27 -53 10 4 -6 12 -7 18 -3 7 4 6 0 -2 -10 -7 -9
-10 -17 -5 -17 5 0 2 -5 -6 -10 -21 -14 385 -13 411 0 10 6 19 16 19 22 0 9
-3 9 -12 0 -16 -16 -31 -15 -25 1 3 9 -7 11 -39 8 -59 -4 -81 4 -64 24 7 9 8
15 2 15 -5 0 -12 -7 -16 -15z m4 -45 c-14 -4 -34 -8 -45 -9 -16 -1 -17 1 -5 9
8 5 29 9 45 9 29 -1 29 -1 5 -9z m94 2 c3 -5 -8 -6 -25 -4 -16 2 -29 6 -29 8
0 8 49 4 54 -4z"/>
<path d="M3618 1183 c12 -2 32 -2 45 0 12 2 2 4 -23 4 -25 0 -35 -2 -22 -4z"/>
<path d="M3520 1160 c0 -5 5 -10 11 -10 5 0 7 5 4 10 -3 6 -8 10 -11 10 -2 0
-4 -4 -4 -10z"/>
<path d="M4258 1163 c7 -3 16 -2 19 1 4 3 -2 6 -13 5 -11 0 -14 -3 -6 -6z"/>
<path d="M3108 1153 c6 -2 18 -2 25 0 6 3 1 5 -13 5 -14 0 -19 -2 -12 -5z"/>
<path d="M4624 928 c-58 -39 -86 -90 -86 -157 0 -136 139 -220 268 -162 64 29
97 81 102 155 4 77 -17 119 -82 164 -39 26 -58 32 -101 32 -43 0 -62 -6 -101
-32z m124 -101 c3 -22 8 -27 33 -27 19 0 29 -5 29 -15 0 -10 -10 -15 -30 -15
-27 0 -30 -3 -30 -29 0 -17 -5 -33 -11 -37 -14 -8 -29 14 -29 44 0 18 -6 22
-31 22 -37 0 -35 24 3 28 20 2 27 10 32 33 7 37 30 34 34 -4z"/>
<path d="M2092 5790 c0 -14 2 -19 5 -12 2 6 2 18 0 25 -3 6 -5 1 -5 -13z"/>
<path d="M701 5714 c0 -11 3 -14 6 -6 3 7 2 16 -1 19 -3 4 -6 -2 -5 -13z"/>
<path d="M2209 4903 c0 -5 -2 -16 -4 -27 -5 -25 4 -46 21 -46 10 0 14 12 14
40 0 29 -4 40 -15 40 -8 0 -15 -3 -16 -7z"/>
<path d="M556 5452 c-3 -5 -8 -27 -12 -50 -5 -31 -12 -42 -29 -46 -66 -17
-106 -105 -70 -159 38 -59 150 -73 187 -25 10 13 18 19 18 14 0 -15 42 27 51
51 5 13 6 37 2 54 -5 25 -15 35 -44 48 -37 15 -38 18 -32 53 3 24 1 44 -7 53
-13 16 -55 20 -64 7z m64 -42 c0 -5 -5 -10 -11 -10 -5 0 -7 5 -4 10 3 6 8 10
11 10 2 0 4 -4 4 -10z"/>
<path d="M1641 5404 c0 -11 3 -14 6 -6 3 7 2 16 -1 19 -3 4 -6 -2 -5 -13z"/>
<path d="M1141 5374 c0 -11 3 -14 6 -6 3 7 2 16 -1 19 -3 4 -6 -2 -5 -13z"/>
<path d="M925 5371 c-3 -5 -1 -12 5 -16 5 -3 10 1 10 9 0 18 -6 21 -15 7z"/>
<path d="M772 4375 c-2 -33 2 -45 12 -45 8 0 17 6 19 13 4 10 6 10 6 0 1 -13
42 -18 53 -8 3 3 3 17 0 30 -3 18 -11 25 -28 25 -13 0 -24 -5 -24 -11 0 -5 -4
-7 -10 -4 -5 3 -10 15 -10 26 0 40 -17 17 -18 -26z m68 -15 c0 -5 -4 -10 -10
-10 -5 0 -10 5 -10 10 0 6 5 10 10 10 6 0 10 -4 10 -10z"/>
<path d="M880 4374 c0 -27 4 -43 10 -39 6 3 10 24 10 46 0 21 -4 39 -10 39 -5
0 -10 -21 -10 -46z"/>
<path d="M484 4392 c-7 -25 -22 -29 -30 -7 -11 28 -24 15 -24 -25 0 -22 5 -40
10 -40 6 0 10 7 10 15 0 8 7 15 15 15 8 0 15 -7 15 -16 0 -30 25 -7 28 26 4
40 -16 66 -24 32z"/>
<path d="M520 4365 c0 -27 3 -45 7 -41 7 7 5 77 -3 85 -2 2 -4 -17 -4 -44z"/>
<path d="M610 4390 c0 -5 -14 -10 -30 -10 -28 0 -30 -3 -27 -27 5 -36 42 -40
41 -5 0 12 3 22 8 22 4 0 8 -6 8 -14 0 -19 26 -40 35 -26 4 6 12 7 24 0 27
-14 60 12 45 37 -15 25 -47 23 -59 -4 -11 -26 -25 -30 -25 -8 0 8 5 15 11 15
8 0 8 5 -1 15 -14 17 -30 20 -30 5z m80 -30 c0 -5 -5 -10 -11 -10 -5 0 -7 5
-4 10 3 6 8 10 11 10 2 0 4 -4 4 -10z"/>
<path d="M731 4353 c1 -22 3 -29 6 -18 3 11 9 24 14 30 14 14 11 25 -6 25 -11
0 -15 -10 -14 -37z"/>
<path d="M675 4240 c-110 -4 -208 -11 -218 -15 -31 -13 -37 -49 -37 -206 0
-116 3 -150 13 -147 6 3 13 18 15 36 2 17 10 36 17 42 10 9 111 15 322 21 306
9 308 9 326 -12 9 -12 17 -32 17 -46 0 -15 5 -23 13 -20 6 2 12 11 11 20 0 10
-1 80 -2 157 -3 185 1 181 -159 178 -65 -1 -208 -5 -318 -8z m-16 -154 c10
-11 8 -19 -5 -35 -13 -15 -20 -17 -26 -8 -6 9 -10 8 -18 -3 -7 -11 -9 -8 -7
13 3 40 35 59 56 33z m88 -28 c-3 -8 -6 -5 -6 6 -1 11 2 17 5 13 3 -3 4 -12 1
-19z"/>
<path d="M1319 4093 c-15 -40 -4 -57 32 -49 18 3 42 6 56 6 21 0 24 4 21 28
-4 37 -44 44 -57 10 -10 -23 -10 -23 -10 5 -1 35 -28 36 -42 0z"/>
<path d="M1515 4089 c-8 -25 6 -42 31 -37 12 2 20 13 22 31 3 23 0 27 -22 27
-16 0 -27 -7 -31 -21z"/>
<path d="M1961 3963 c-1 -24 4 -43 9 -43 12 0 12 24 0 60 -7 21 -8 19 -9 -17z"/>
<path d="M1226 3942 c-8 -26 2 -48 15 -35 6 6 6 19 1 34 l-9 24 -7 -23z"/>
<path d="M1305 3940 c-3 -5 1 -10 9 -10 9 0 16 5 16 10 0 6 -4 10 -9 10 -6 0
-13 -4 -16 -10z"/>
<path d="M1361 3934 c0 -11 3 -14 6 -6 3 7 2 16 -1 19 -3 4 -6 -2 -5 -13z"/>
<path d="M1395 3940 c-4 -6 7 -10 24 -10 17 0 31 4 31 8 0 11 -48 13 -55 2z"/>
<path d="M1465 3940 c-3 -5 3 -10 14 -10 12 0 21 5 21 10 0 6 -6 10 -14 10 -8
0 -18 -4 -21 -10z"/>
<path d="M474 3918 c-7 -10 8 -15 41 -12 17 1 32 3 35 4 3 1 24 1 48 0 23 -1
42 3 42 8 0 10 -160 11 -166 0z"/>
<path d="M650 3921 c0 -6 5 -13 10 -16 6 -3 10 1 10 9 0 9 -4 16 -10 16 -5 0
-10 -4 -10 -9z"/>
<path d="M1448 3843 c7 -3 16 -2 19 1 4 3 -2 6 -13 5 -11 0 -14 -3 -6 -6z"/>
<path d="M827 3590 c-45 -39 -55 -82 -33 -135 20 -47 21 -45 -11 -45 -19 0
-24 -3 -15 -9 7 -4 24 -6 37 -4 12 3 35 -3 49 -12 26 -17 26 -17 26 -158 0
-77 3 -137 7 -133 4 4 8 67 9 139 1 73 2 135 3 140 0 4 12 7 25 7 14 0 28 5
31 10 3 6 33 10 66 10 33 0 59 4 59 10 0 6 -18 10 -41 10 -35 0 -40 2 -34 18
4 9 10 38 12 63 5 41 2 50 -24 79 -24 26 -39 33 -79 37 -46 5 -54 2 -87 -27z
m138 -6 c83 -54 37 -194 -65 -194 -109 0 -140 152 -40 203 37 19 67 16 105 -9z"/>
<path d="M882 3558 c-20 -20 -14 -48 13 -60 14 -6 25 -20 25 -31 0 -15 -5 -18
-25 -15 -28 6 -32 -3 -10 -22 13 -10 19 -10 35 5 27 25 25 50 -7 73 -28 20
-24 46 5 35 15 -6 15 -5 3 10 -16 20 -23 21 -39 5z"/>
<path d="M990 3330 c0 -5 20 -10 45 -10 25 0 45 5 45 10 0 6 -20 10 -45 10
-25 0 -45 -4 -45 -10z"/>
<path d="M783 3323 c15 -2 37 -2 50 0 12 2 0 4 -28 4 -27 0 -38 -2 -22 -4z"/>
<path d="M765 3250 c-4 -6 12 -10 39 -10 25 0 46 5 46 10 0 6 -18 10 -39 10
-22 0 -43 -4 -46 -10z"/>
<path d="M990 3250 c0 -5 20 -10 45 -10 25 0 45 5 45 10 0 6 -20 10 -45 10
-25 0 -45 -4 -45 -10z"/>
<path d="M760 3170 c0 -5 20 -10 45 -10 25 0 45 5 45 10 0 6 -20 10 -45 10
-25 0 -45 -4 -45 -10z"/>
<path d="M990 3170 c0 -5 20 -10 45 -10 25 0 45 5 45 10 0 6 -20 10 -45 10
-25 0 -45 -4 -45 -10z"/>
<path d="M760 3090 c0 -5 20 -10 45 -10 25 0 45 5 45 10 0 6 -20 10 -45 10
-25 0 -45 -4 -45 -10z"/>
<path d="M1003 3093 c15 -2 39 -2 55 0 15 2 2 4 -28 4 -30 0 -43 -2 -27 -4z"/>
<path d="M484 2785 c-19 -50 -13 -66 17 -47 17 11 24 10 47 -6 46 -32 50 -33
68 -15 10 10 22 18 27 18 6 0 13 9 17 20 7 19 7 19 19 -3 15 -29 49 -28 61 1
8 20 9 19 9 -10 1 -17 7 -33 14 -36 23 -8 47 5 47 26 0 16 3 18 12 9 7 -7 31
-12 55 -12 36 0 43 3 43 19 0 11 5 23 11 26 35 22 -62 44 -103 24 -9 -5 -19
-5 -22 0 -7 11 -56 2 -56 -11 0 -5 -6 -3 -14 4 -17 18 -166 15 -177 -4 -5 -8
-12 -3 -20 15 -18 39 -35 33 -55 -18z"/>
<path d="M2120 2820 c0 -5 5 -10 10 -10 6 0 10 5 10 10 0 6 -4 10 -10 10 -5 0
-10 -4 -10 -10z"/>
<path d="M1170 2810 c0 -6 -10 -8 -24 -4 -13 3 -27 1 -30 -5 -4 -6 -15 -7 -30
-1 -12 4 -29 4 -36 0 -8 -5 -19 -5 -25 0 -17 14 -19 14 -43 1 -18 -10 -22 -19
-19 -49 2 -32 6 -37 30 -40 22 -3 30 1 34 17 4 15 9 18 17 12 15 -13 109 -11
118 2 4 7 12 6 22 -2 13 -11 19 -11 31 -1 10 9 15 9 15 1 0 -14 37 -15 45 -1
4 6 13 5 24 -2 29 -18 53 -3 47 29 -2 16 -5 31 -5 36 -1 11 -39 9 -46 -3 -4
-6 -13 -7 -24 -1 -10 6 -27 8 -38 5 -12 -3 -24 -1 -27 5 -9 14 -36 14 -36 1z
m85 -40 c3 -5 1 -10 -4 -10 -6 0 -11 5 -11 10 0 6 2 10 4 10 3 0 8 -4 11 -10z"/>
<path d="M1623 2785 c-9 -19 -13 -38 -8 -42 4 -5 10 -2 12 5 3 6 13 12 23 12
10 0 20 -6 23 -12 2 -7 7 -10 11 -7 9 8 -22 79 -34 79 -6 0 -18 -16 -27 -35z"/>
<path d="M1705 2790 c-8 -13 4 -68 16 -76 18 -11 39 18 39 52 0 29 -3 34 -24
34 -14 0 -28 -5 -31 -10z m35 -20 c0 -5 -4 -10 -10 -10 -5 0 -10 5 -10 10 0 6
5 10 10 10 6 0 10 -4 10 -10z"/>
<path d="M1781 2768 c1 -24 3 -27 6 -10 2 12 9 22 14 22 5 0 9 5 9 10 0 6 -7
10 -15 10 -11 0 -15 -10 -14 -32z"/>
<path d="M1825 2780 c-8 -25 1 -40 25 -40 28 0 34 18 8 23 -21 4 -21 4 3 6 28
1 50 -15 43 -34 -3 -7 3 -15 13 -19 23 -9 45 20 41 54 -3 28 -39 40 -63 20 -9
-7 -15 -8 -20 0 -11 17 -43 11 -50 -10z m110 -10 c-3 -5 -10 -10 -16 -10 -5 0
-9 5 -9 10 0 6 7 10 16 10 8 0 12 -4 9 -10z"/>
<path d="M1974 2785 c-10 -25 4 -47 28 -43 17 2 24 11 26 31 3 23 0 27 -23 27
-14 0 -28 -7 -31 -15z m36 -15 c0 -5 -4 -10 -10 -10 -5 0 -10 5 -10 10 0 6 5
10 10 10 6 0 10 -4 10 -10z"/>
<path d="M2046 2792 c-3 -5 -2 -18 1 -31 5 -21 6 -21 19 5 8 14 14 28 14 30 0
8 -29 4 -34 -4z"/>
<path d="M2120 2775 c0 -14 5 -25 10 -25 6 0 10 11 10 25 0 14 -4 25 -10 25
-5 0 -10 -11 -10 -25z"/>
<path d="M432 1908 c3 -39 6 -43 31 -46 22 -3 30 1 34 17 7 27 23 27 23 1 0
-11 6 -20 14 -20 10 0 14 10 12 35 -4 44 -11 52 -31 35 -12 -10 -15 -10 -15 4
0 30 -19 16 -22 -16 -2 -18 -7 -33 -13 -33 -5 0 -11 15 -13 33 -5 48 -24 39
-20 -10z"/>
<path d="M560 1940 c0 -5 7 -10 15 -10 8 0 15 5 15 10 0 6 -7 10 -15 10 -8 0
-15 -4 -15 -10z"/>
<path d="M600 1905 c0 -25 5 -45 10 -45 6 0 10 20 10 45 0 25 -4 45 -10 45 -5
0 -10 -20 -10 -45z"/>
<path d="M630 1905 c0 -25 5 -45 10 -45 6 0 10 5 10 11 0 6 7 3 16 -5 8 -9 24
-16 35 -16 16 0 19 7 19 50 0 28 -4 50 -10 50 -5 0 -10 -6 -10 -12 0 -16 -48
-39 -55 -28 -3 5 -2 15 1 24 3 9 1 16 -5 16 -6 0 -11 -19 -11 -45z"/>
<path d="M831 1924 c-18 -18 -27 -22 -37 -13 -7 6 -23 9 -36 7 -18 -2 -23 -9
-23 -33 0 -24 5 -31 23 -33 13 -2 30 2 38 8 11 10 14 10 14 1 0 -8 11 -11 28
-9 24 3 27 8 30 42 4 51 -8 61 -37 30z m9 -44 c0 -5 -2 -10 -4 -10 -3 0 -8 5
-11 10 -3 6 -1 10 4 10 6 0 11 -4 11 -10z"/>
<path d="M560 1890 c0 -20 5 -30 15 -30 10 0 15 10 15 30 0 20 -5 30 -15 30
-10 0 -15 -10 -15 -30z"/>
<path d="M1188 4845 c-14 -31 3 -55 39 -55 27 0 38 19 29 55 -9 35 -52 35 -68
0z"/>
<path d="M1060 4825 c0 -49 1 -50 31 -35 34 19 15 80 -25 80 -3 0 -6 -20 -6
-45z"/>
<path d="M830 4815 c0 -8 5 -15 10 -15 6 0 10 7 10 15 0 8 -4 15 -10 15 -5 0
-10 -7 -10 -15z"/>
<path d="M1870 2195 c0 -8 5 -15 10 -15 6 0 10 7 10 15 0 8 -4 15 -10 15 -5 0
-10 -7 -10 -15z"/>
<path d="M5172 5710 c0 -14 2 -19 5 -12 2 6 2 18 0 25 -3 6 -5 1 -5 -13z"/>
<path d="M227 5653 c-4 -3 -7 -13 -7 -22 1 -13 3 -13 11 2 11 19 8 33 -4 20z"/>
<path d="M201 5544 c0 -11 3 -14 6 -6 3 7 2 16 -1 19 -3 4 -6 -2 -5 -13z"/>
<path d="M5171 5544 c0 -11 3 -14 6 -6 3 7 2 16 -1 19 -3 4 -6 -2 -5 -13z"/>
<path d="M5174 5290 c0 -91 2 -128 3 -82 2 45 2 119 0 165 -1 45 -3 8 -3 -83z"/>
<path d="M192 5160 c0 -14 2 -19 5 -12 2 6 2 18 0 25 -3 6 -5 1 -5 -13z"/>
<path d="M5174 4965 c0 -49 1 -71 3 -48 2 23 2 64 0 90 -2 26 -3 8 -3 -42z"/>
<path d="M192 4975 c0 -16 2 -22 5 -12 2 9 2 23 0 30 -3 6 -5 -1 -5 -18z"/>
<path d="M5170 4846 c0 -14 5 -26 10 -26 6 0 10 9 10 19 0 11 -4 23 -10 26 -6
4 -10 -5 -10 -19z"/>
<path d="M185 4791 c-3 -5 -1 -12 5 -16 5 -3 10 1 10 9 0 18 -6 21 -15 7z"/>
<path d="M192 4410 c0 -14 2 -19 5 -12 2 6 2 18 0 25 -3 6 -5 1 -5 -13z"/>
<path d="M192 4300 c0 -14 2 -19 5 -12 2 6 2 18 0 25 -3 6 -5 1 -5 -13z"/>
<path d="M5170 4153 c0 -68 5 -66 14 5 4 33 3 52 -4 52 -6 0 -10 -24 -10 -57z"/>
<path d="M5174 3770 c0 -179 2 -252 3 -162 2 89 2 235 0 325 -1 89 -3 16 -3
-163z"/>
<path d="M191 3914 c0 -11 3 -14 6 -6 3 7 2 16 -1 19 -3 4 -6 -2 -5 -13z"/>
<path d="M5173 3335 c0 -22 2 -30 4 -17 2 12 2 30 0 40 -3 9 -5 -1 -4 -23z"/>
<path d="M5174 3170 c0 -69 1 -97 3 -62 2 34 2 90 0 125 -2 34 -3 6 -3 -63z"/>
<path d="M5174 2810 c0 -91 2 -128 3 -82 2 45 2 119 0 165 -1 45 -3 8 -3 -83z"/>
<path d="M5173 2535 c0 -22 2 -30 4 -17 2 12 2 30 0 40 -3 9 -5 -1 -4 -23z"/>
<path d="M5174 2380 c0 -63 1 -89 3 -57 2 31 2 83 0 115 -2 31 -3 5 -3 -58z"/>
<path d="M5174 2130 c0 -69 1 -97 3 -62 2 34 2 90 0 125 -2 34 -3 6 -3 -63z"/>
<path d="M5174 1770 c0 -91 2 -128 3 -82 2 45 2 119 0 165 -1 45 -3 8 -3 -83z"/>
<path d="M5174 1385 c0 -99 2 -138 3 -87 2 51 2 132 0 180 -1 48 -3 6 -3 -93z"/>
<path d="M5174 1045 c0 -49 1 -71 3 -48 2 23 2 64 0 90 -2 26 -3 8 -3 -42z"/>
<path d="M5171 934 c0 -11 3 -14 6 -6 3 7 2 16 -1 19 -3 4 -6 -2 -5 -13z"/>
<path d="M5172 810 c0 -19 2 -27 5 -17 2 9 2 25 0 35 -3 9 -5 1 -5 -18z"/>
<path d="M400 587 c8 -8 26 -18 40 -22 32 -9 25 -3 -20 19 -25 12 -31 13 -20
3z"/>
<path d="M478 553 c7 -3 16 -2 19 1 4 3 -2 6 -13 5 -11 0 -14 -3 -6 -6z"/>
<path d="M4788 303 c7 -3 16 -2 19 1 4 3 -2 6 -13 5 -11 0 -14 -3 -6 -6z"/>
</g>
</svg>
